#!OML:ASF H:\Pregnant\Project 1\Capture day 1\Session 1\femalepreg.ASF
:FULLY-SPECIFIED
:DEGREES
413
root -8.72493 15.8329 9.12528 202.724 1.60012 -181.443
lowerback -17.0169 -0.761567 -10.0446
upperback -6.55904 1.86579 -1.80964
thorax 2.27787 1.54681 4.11391
lowerneck -28.0537 1.03768 2.4677
upperneck 32.9347 -1.54154 1.56249
head 16.6191 -0.494871 -0.200677
rclavicle -1.92076e-014 -3.18055e-015
rhumerus -7.48055 26.5089 -63.7236
rradius 63.7924
rwrist -47.5505
rhand -24.8923 -52.4129
rfingers 7.12502
rthumb 1.61559 -82.3865
lclavicle -1.92076e-014 -3.18055e-015
lhumerus 9.76801 -46.4967 47.4588
lradius 64.703
lwrist 72.9991
lhand -38.6646 35.6634
lfingers 7.12502
lthumb -11.6802 65.3178
rfemur -61.6219 16.1713 4.98149
rtibia 34.2534
rfoot -11.4601 -21.3148
rtoes -3.38203
lfemur -19.9673 -4.54385 -22.9446
ltibia 18.1345
lfoot -12.3739 11.3291
ltoes -40.6312
414
root -8.71646 15.8327 9.01415 202.672 1.45927 -181.593
lowerback -17.1185 -0.842126 -9.9909
upperback -6.57352 1.75942 -1.68072
thorax 2.32804 1.49408 4.20537
lowerneck -28.1133 0.997994 2.4009
upperneck 33.033 -1.54458 1.46779
head 16.6803 -0.521036 -0.233071
rclavicle 3.65267e-015 5.725e-014
rhumerus -7.44934 26.7093 -63.633
rradius 63.85
rwrist -47.5533
rhand -24.9266 -52.5166
rfingers 7.12502
rthumb 1.58249 -82.4905
lclavicle 3.65267e-015 5.725e-014
lhumerus 9.46487 -46.437 47.7748
lradius 64.6194
lwrist 72.9513
lhand -38.6074 35.6524
lfingers 7.12502
lthumb -11.6251 65.3099
rfemur -61.4988 16.2779 4.79773
rtibia 33.8035
rfoot -11.6369 -21.7907
rtoes -3.39237
lfemur -18.9186 -4.58492 -23.0715
ltibia 17.127
lfoot -12.1714 11.0424
ltoes -40.9381
415
root -8.707 15.8299 8.90114 202.617 1.3039 -181.756
lowerback -17.2371 -0.928746 -9.93526
upperback -6.58674 1.64738 -1.54776
thorax 2.38953 1.43833 4.29933
lowerneck -28.1661 0.961179 2.33005
upperneck 33.1246 -1.53345 1.35827
head 16.7365 -0.544249 -0.268278
rclavicle -9.61621e-015 -1.66979e-014
rhumerus -7.41379 26.919 -63.5347
rradius 63.9123
rwrist -47.5432
rhand -24.9529 -52.6033
rfingers 7.12502
rthumb 1.5571 -82.5774
lclavicle -9.61621e-015 -1.66979e-014
lhumerus 9.13462 -46.3791 48.1145
lradius 64.532
lwrist 72.8984
lhand -38.5486 35.6394
lfingers 7.12502
lthumb -11.5683 65.3002
rfemur -61.3149 16.3128 4.71288
rtibia 33.4623
rfoot -11.7608 -22.1398
rtoes -3.56024
lfemur -17.8838 -4.62113 -23.2042
ltibia 16.1621
lfoot -11.9955 10.7304
ltoes -41.2269
416
root -8.69652 15.8246 8.78603 202.559 1.1406 -181.931
lowerback -17.3775 -1.01902 -9.87523
upperback -6.60017 1.53357 -1.41371
thorax 2.46298 1.38168 4.39203
lowerneck -28.2076 0.92787 2.25522
upperneck 33.213 -1.51038 1.2392
head 16.7886 -0.564987 -0.30458
rclavicle -3.61788e-014 6.36111e-015
rhumerus -7.37868 27.1374 -63.4347
rradius 63.9783
rwrist -47.5201
rhand -24.9663 -52.6598
rfingers 7.12502
rthumb 1.54413 -82.634
lclavicle -3.61788e-014 6.36111e-015
lhumerus 8.77789 -46.3313 48.4695
lradius 64.4449
lwrist 72.8455
lhand -38.4974 35.6281
lfingers 7.12502
lthumb -11.519 65.2916
rfemur -61.0694 16.2834 4.7251
rtibia 33.2262
rfoot -11.7624 -22.36
rtoes -4.04116
lfemur -16.866 -4.64507 -23.3439
ltibia 15.2479
lfoot -11.8513 10.3968
ltoes -41.4827
417
root -8.68504 15.8173 8.66912 202.509 0.977917 -182.112
lowerback -17.5495 -1.11132 -9.80538
upperback -6.61509 1.42029 -1.27451
thorax 2.55182 1.32529 4.48537
lowerneck -28.244 0.898531 2.17179
upperneck 33.3007 -1.4725 1.11034
head 16.8393 -0.582618 -0.340652
rclavicle 3.4017e-014 -7.55382e-014
rhumerus -7.33652 27.3646 -63.3281
rradius 64.0481
rwrist -47.485
rhand -24.9645 -52.6974
rfingers 7.12502
rthumb 1.54588 -82.6716
lclavicle 3.4017e-014 -7.55382e-014
lhumerus 8.39785 -46.2884 48.8397
lradius 64.3553
lwrist 72.7944
lhand -38.4482 35.6217
lfingers 7.12502
lthumb -11.4715 65.2879
rfemur -60.7795 16.1954 4.83187
rtibia 33.0967
rfoot -11.5417 -22.3981
rtoes -4.83319
lfemur -15.8692 -4.64295 -23.4851
ltibia 14.3713
lfoot -11.7336 10.0363
ltoes -41.6957
418
root -8.67259 15.8086 8.55073 202.479 0.827482 -182.307
lowerback -17.7587 -1.20729 -9.73524
upperback -6.63994 1.30959 -1.13418
thorax 2.64944 1.27187 4.58065
lowerneck -28.2456 0.867766 2.06689
upperneck 33.3753 -1.42733 0.987415
head 16.8757 -0.600187 -0.368898
rclavicle -2.54196e-014 3.65764e-014
rhumerus -7.29374 27.6076 -63.2214
rradius 64.1238
rwrist -47.4472
rhand -24.9643 -52.7348
rfingers 7.12502
rthumb 1.54607 -82.7089
lclavicle -2.54196e-014 3.65764e-014
lhumerus 7.98658 -46.2553 49.2261
lradius 64.2637
lwrist 72.7468
lhand -38.401 35.6264
lfingers 7.12502
lthumb -11.426 65.2951
rfemur -60.4748 16.0552 5.00211
rtibia 33.0843
rfoot -11.0064 -22.2013
rtoes -5.72765
lfemur -14.8852 -4.61259 -23.6397
ltibia 13.491
lfoot -11.6125 9.64404
ltoes -41.885
419
root -8.65935 15.8001 8.43109 202.461 0.684819 -182.516
lowerback -17.9971 -1.30354 -9.65743
upperback -6.67168 1.20319 -0.996879
thorax 2.75485 1.22178 4.6694
lowerneck -28.2137 0.832812 1.93759
upperneck 33.4375 -1.37797 0.870504
head 16.8984 -0.619281 -0.3894
rclavicle -1.47846e-015 -1.35174e-014
rhumerus -7.25055 27.8577 -63.1181
rradius 64.208
rwrist -47.4137
rhand -24.9756 -52.8029
rfingers 7.12502
rthumb 1.5351 -82.7772
lclavicle -1.47846e-015 -1.35174e-014
lhumerus 7.55274 -46.2325 49.6234
lradius 64.1685
lwrist 72.702
lhand -38.3501 35.6422
lfingers 7.12502
lthumb -11.3769 65.3136
rfemur -60.1626 15.8773 5.21057
rtibia 33.2026
rfoot -10.1609 -21.7794
rtoes -6.45304
lfemur -13.877 -4.56904 -23.8052
ltibia 12.5458
lfoot -11.4486 9.21536
ltoes -42.0655
420
root -8.64598 15.7931 8.31045 202.441 0.532326 -182.744
lowerback -18.2348 0.106202 -10.0615
upperback -6.68476 0.725471 -1.00709
thorax 2.75702 -0.0542531 4.74246
lowerneck -28.1386 0.790963 1.77551
upperneck 33.482 -1.32615 0.764246
head 16.9023 -0.641111 -0.398904
rclavicle 1.46635e-014 -1.74931e-014
rhumerus -7.20534 28.1114 -63.0223
rradius 64.2969
rwrist -47.3827
rhand -24.9968 -52.9143
rfingers 7.12502
rthumb 1.51462 -82.8886
lclavicle 1.46635e-014 -1.74931e-014
lhumerus 7.09087 -46.2147 50.039
lradius 64.0667
lwrist 72.6589
lhand -38.2902 35.6662
lfingers 7.12502
lthumb -11.3192 65.3408
rfemur -59.8425 15.6758 5.41984
rtibia 33.4628
rfoot -9.08896 -21.2131
rtoes -6.83599
lfemur -12.7899 -4.54067 -23.9817
ltibia 11.4547
lfoot -11.1863 8.73868
ltoes -42.2694
421
root -8.63283 15.7882 8.18899 202.403 0.358658 -182.988
lowerback -18.4567 0.0234041 -9.95348
upperback -6.72597 0.604449 -0.885807
thorax 2.84794 -0.121801 4.78976
lowerneck -28.0428 0.749796 1.59885
upperneck 33.5262 -1.26974 0.66268
head 16.9014 -0.663245 -0.40294
rclavicle 3.01128e-015 -7.55382e-015
rhumerus -7.16003 28.3617 -62.9431
rradius 64.3834
rwrist -47.351
rhand -25.0249 -53.0499
rfingers 7.12502
rthumb 1.4875 -83.0245
lclavicle 3.01128e-015 -7.55382e-015
lhumerus 6.60473 -46.1961 50.4731
lradius 63.9534
lwrist 72.6143
lhand -38.2191 35.6973
lfingers 7.12502
lthumb -11.2506 65.3756
rfemur -59.5092 15.474 5.59784
rtibia 33.8548
rfoot -7.90802 -20.6156
rtoes -6.70372
lfemur -11.5766 -4.5524 -24.1634
ltibia 10.1572
lfoot -10.7873 8.2123
ltoes -42.5111
422
root -8.6203 15.7861 8.06677 202.337 0.155466 -183.244
lowerback -18.6469 -0.0597852 -9.80617
upperback -6.76179 0.474863 -0.774082
thorax 2.93109 -0.192783 4.80198
lowerneck -27.9403 0.712642 1.41731
upperneck 33.5743 -1.20685 0.560923
head 16.9011 -0.684087 -0.404956
rclavicle -2.28195e-015 5.30755e-014
rhumerus -7.10605 28.5986 -62.8845
rradius 64.4567
rwrist -47.3046
rhand -25.05 -53.1773
rfingers 7.12502
rthumb 1.46328 -83.152
lclavicle -2.28195e-015 5.30755e-014
lhumerus 6.09255 -46.1631 50.9285
lradius 63.8293
lwrist 72.5657
lhand -38.1383 35.7313
lfingers 7.12502
lthumb -11.1726 65.4138
rfemur -59.16 15.276 5.73375
rtibia 34.3421
rfoot -6.68681 -20.0915
rtoes -6.12388
lfemur -10.2251 -4.71896 -24.3253
ltibia 8.64586
lfoot -10.1893 7.72749
ltoes -42.8066
423
root -8.60874 15.7859 7.94422 202.255 -0.0769041 -183.491
lowerback -18.8096 -0.137928 -9.59392
upperback -6.79528 0.339108 -0.673368
thorax 3.00546 -0.266347 4.7635
lowerneck -27.8481 0.68656 1.2503
upperneck 33.6292 -1.13537 0.457485
head 16.9068 -0.699978 -0.408483
rclavicle -1.23045e-014 4.07509e-014
rhumerus -7.04637 28.8082 -62.8585
rradius 64.5112
rwrist -47.2351
rhand -25.0681 -53.2701
rfingers 7.12502
rthumb 1.44578 -83.2449
lclavicle -1.23045e-014 4.07509e-014
lhumerus 5.55474 -46.1064 51.4011
lradius 63.6952
lwrist 72.5107
lhand -38.0459 35.7324
lfingers 7.12502
lthumb -11.0836 65.4197
rfemur -58.8177 15.087 5.82787
rtibia 34.866
rfoot -5.43425 -19.7015
rtoes -5.39153
lfemur -8.80064 -4.90961 -24.4762
ltibia 7.01471
lfoot -9.47527 7.18977
ltoes -43.1645
424
root -8.59763 15.7863 7.8212 202.167 -0.310024 -183.699
lowerback -18.9615 -0.203723 -9.30675
upperback -6.82862 0.205219 -0.575551
thorax 3.07577 -0.339087 4.6791
lowerneck -27.7775 0.684381 1.12039
upperneck 33.6973 -1.0442 0.344775
head 16.9243 -0.704501 -0.418456
rclavicle 1.47629e-014 -1.65985e-014
rhumerus -6.98031 29.0007 -62.8699
rradius 64.5438
rwrist -47.1371
rhand -25.0678 -53.2865
rfingers 7.12502
rthumb 1.44604 -83.2614
lclavicle 1.47629e-014 -1.65985e-014
lhumerus 4.96811 -46.0103 51.9027
lradius 63.5582
lwrist 72.4454
lhand -37.9503 35.7048
lfingers 7.12502
lthumb -10.9913 65.3971
rfemur -58.4926 14.9014 5.93616
rtibia 35.3671
rfoot -4.14361 -19.3806
rtoes -4.88519
lfemur -7.44691 -5.08564 -24.5916
ltibia 5.52087
lfoot -8.75431 6.64881
ltoes -43.5735
